<svg xmlns="http://www.w3.org/2000/svg" viewBox="0 0 200 200">
  <defs>
    <linearGradient id="grad1" x1="0%" y1="0%" x2="100%" y2="100%">
      <stop offset="0%" style="stop-color:#00BFFF;stop-opacity:1" />
      <stop offset="100%" style="stop-color:#FF4500;stop-opacity:1" />
    </linearGradient>
  </defs>
  
  <!-- Outer circle representing the marketplace -->
  <circle cx="100" cy="100" r="90" fill="none" stroke="url(#grad1)" stroke-width="12" />
  
  <!-- Inner hexagon representing data structure -->
  <polygon points="100,40 154,70 154,130 100,160 46,130 46,70" fill="none" stroke="url(#grad1)" stroke-width="10" />
  
  <!-- Connecting lines representing data flow and blockchain -->
  <line x1="100" y1="80" x2="100" y2="40" stroke="url(#grad1)" stroke-width="10" />
  <line x1="100" y1="120" x2="100" y2="160" stroke="url(#grad1)" stroke-width="10" />
  <line x1="80" y1="100" x2="46" y2="100" stroke="url(#grad1)" stroke-width="10" />
  <line x1="120" y1="100" x2="154" y2="100" stroke="url(#grad1)" stroke-width="10" />
  
  <!-- Abstract AI and data flow representation -->
  <path d="M100,40 Q130,70 100,100 Q70,130 100,160" fill="none" stroke="url(#grad1)" stroke-width="10" />
  <path d="M46,70 Q100,100 154,70" fill="none" stroke="url(#grad1)" stroke-width="10" />
  <path d="M46,130 Q100,100 154,130" fill="none" stroke="url(#grad1)" stroke-width="10" />
  
  <!-- Blockchain representation integrated with hexagon (nodes on top of lines) -->
  <circle cx="154" cy="70" r="12" fill="url(#grad1)" />
  <circle cx="154" cy="130" r="12" fill="url(#grad1)" />
  <circle cx="100" cy="160" r="12" fill="url(#grad1)" />
  <circle cx="46" cy="130" r="12" fill="url(#grad1)" />
  <circle cx="46" cy="70" r="12" fill="url(#grad1)" />
  <circle cx="100" cy="40" r="12" fill="url(#grad1)" />
  
  <!-- Central node (on top of everything) -->
  <circle cx="100" cy="100" r="24" fill="url(#grad1)" />
</svg>
